<svg width="400" height="300" xmlns="http://www.w3.org/2000/svg">
  <defs>
    <linearGradient id="grad" x1="0%" y1="0%" x2="100%" y2="100%">
      <stop offset="0%" style="stop-color:#431407;stop-opacity:1" />
      <stop offset="100%" style="stop-color:#9a3412;stop-opacity:1" />
    </linearGradient>
  </defs>

  <!-- Background -->
  <rect width="400" height="300" fill="url(#grad)"/>

  <!-- Grid pattern -->
  <g opacity="0.1">
    <line x1="0" y1="75" x2="400" y2="75" stroke="#fb923c" stroke-width="1"/>
    <line x1="0" y1="150" x2="400" y2="150" stroke="#fb923c" stroke-width="1"/>
    <line x1="0" y1="225" x2="400" y2="225" stroke="#fb923c" stroke-width="1"/>
    <line x1="100" y1="0" x2="100" y2="300" stroke="#fb923c" stroke-width="1"/>
    <line x1="200" y1="0" x2="200" y2="300" stroke="#fb923c" stroke-width="1"/>
    <line x1="300" y1="0" x2="300" y2="300" stroke="#fb923c" stroke-width="1"/>
  </g>

  <!-- Waveform decoration (deterministic per title) -->
  <g>
  <polyline points="0,209.1 8,208.5 16,208.0 24,207.1 32,205.3 40,202.7 48,199.1 56,195.0 64,191.1 72,188.0 80,186.5 88,186.9 96,189.4 104,193.7 112,199.2 120,205.2 128,210.7 136,215.1 144,218.0 152,219.1 160,218.7 168,217.2 176,215.3 184,213.4 192,212.1 200,211.3 208,211.1 216,210.9 224,210.3 232,208.8 240,206.3 248,202.6 256,198.2 264,193.5 272,189.5 280,186.7 288,185.7 296,186.9 304,190.1 312,194.9 320,200.5 328,206.1 336,211.0 344,214.6 352,216.6 360,217.1 368,216.5 376,215.3 384,214.1 392,213.2 400,212.9" fill="none" stroke="#fb923c" stroke-width="1.5" opacity="0.35"/>
  <polyline points="0,230.5 8,237.6 16,244.4 24,250.0 32,253.5 40,254.7 48,253.7 56,250.9 64,247.1 72,243.1 80,239.8 88,237.5 96,236.4 104,236.1 112,236.0 120,235.4 128,233.8 136,230.8 144,226.4 152,221.1 160,215.6 168,210.9 176,207.8 184,207.0 192,208.7 200,212.7 208,218.4 216,224.8 224,231.0 232,236.2 240,239.7 248,241.6 256,242.1 264,241.7 272,241.2 280,241.2 288,242.2 296,244.1 304,246.7 312,249.2 320,251.0 328,251.2 336,249.3 344,245.3 352,239.5 360,232.4 368,225.2 376,218.8 384,214.1 392,211.5 400,211.2" fill="none" stroke="#fb923c" stroke-width="1.5" opacity="0.22"/>
  <polyline points="0,245.3 8,247.1 16,248.7 24,249.3 32,248.6 40,246.4 48,243.4 56,240.5 64,238.5 72,238.4 80,240.8 88,245.6 96,252.5 104,260.5 112,268.6 120,275.5 128,280.4 136,282.9 144,283.1 152,281.5 160,279.1 168,276.8 176,275.4 184,275.4 192,276.7 200,279.0 208,281.3 216,282.6 224,282.1 232,279.3 240,274.2 248,267.1 256,259.0 264,251.1 272,244.4 280,239.8 288,237.8 296,238.1 304,240.4 312,243.5 320,246.6 328,248.8 336,249.6 344,249.0 352,247.4 360,245.8 368,244.9 376,245.8 384,248.9 392,254.2 400,261.3" fill="none" stroke="#fb923c" stroke-width="1.5" opacity="0.13"/>
  </g>

  <!-- Header -->
  <text x="20" y="40" font-family="Inter, sans-serif" font-size="14" fill="#fb923c" font-weight="600">
    UWA / 09-12
  </text>

  <!-- Keyword badge -->
  <rect x="20" y="60" width="132" height="28" rx="14" fill="#fb923c" opacity="0.2"/>
  <text x="30" y="79" font-family="Inter, sans-serif" font-size="13" fill="#fb923c" font-weight="500">
    classification
  </text>

  <!-- Title -->
  <foreignObject x="20" y="110" width="360" height="120">
    <div xmlns="http://www.w3.org/1999/xhtml" style="
      font-family: Inter, sans-serif;
      font-size: 18px;
      font-weight: 600;
      color: #e2e8f0;
      line-height: 1.4;
      overflow: hidden;
      display: -webkit-box;
      -webkit-line-clamp: 4;
      -webkit-box-orient: vertical;
    ">
      Improvement of chaotic maps for k-NN classification using...
    </div>
  </foreignObject>

  <!-- Author -->
  <text x="20" y="250" font-family="Inter, sans-serif" font-size="13" fill="#94a3b8">
    Alphan Mat
  </text>

  <!-- Footer -->
  <text x="20" y="275" font-family="Inter, sans-serif" font-size="11" fill="#64748b">
    Scientific Reports
  </text>

  <!-- Score badge -->
  <circle cx="360" cy="40" r="24" fill="#fb923c" opacity="0.2"/>
  <text x="360" y="46" font-family="Inter, sans-serif" font-size="14" fill="#fb923c" font-weight="700" text-anchor="middle">
    56
  </text>
</svg>