<svg width="400" height="300" xmlns="http://www.w3.org/2000/svg">
  <defs>
    <linearGradient id="grad" x1="0%" y1="0%" x2="100%" y2="100%">
      <stop offset="0%" style="stop-color:#0f172a;stop-opacity:1" />
      <stop offset="100%" style="stop-color:#1e3a8a;stop-opacity:1" />
    </linearGradient>
  </defs>

  <!-- Background -->
  <rect width="400" height="300" fill="url(#grad)"/>

  <!-- Grid pattern -->
  <g opacity="0.1">
    <line x1="0" y1="75" x2="400" y2="75" stroke="#60a5fa" stroke-width="1"/>
    <line x1="0" y1="150" x2="400" y2="150" stroke="#60a5fa" stroke-width="1"/>
    <line x1="0" y1="225" x2="400" y2="225" stroke="#60a5fa" stroke-width="1"/>
    <line x1="100" y1="0" x2="100" y2="300" stroke="#60a5fa" stroke-width="1"/>
    <line x1="200" y1="0" x2="200" y2="300" stroke="#60a5fa" stroke-width="1"/>
    <line x1="300" y1="0" x2="300" y2="300" stroke="#60a5fa" stroke-width="1"/>
  </g>

  <!-- Waveform decoration (deterministic per title) -->
  <g>
  <polyline points="0,214.8 8,209.0 16,203.4 24,198.7 32,195.3 40,193.6 48,193.3 56,194.0 64,195.2 72,196.5 80,197.5 88,198.1 96,198.6 104,199.2 112,200.3 120,202.4 128,205.5 136,209.5 144,214.0 152,218.2 160,221.5 168,223.2 176,222.8 184,220.1 192,215.5 200,209.4 208,202.9 216,196.8 224,192.0 232,189.1 240,188.2 248,189.3 256,191.8 264,195.2 272,198.8 280,201.9 288,204.4 296,206.1 304,207.2 312,208.2 320,209.3 328,210.9 336,213.1 344,215.4 352,217.6 360,219.1 368,219.2 376,217.6 384,214.2 392,209.2 400,203.2" fill="none" stroke="#60a5fa" stroke-width="1.5" opacity="0.35"/>
  <polyline points="0,228.6 8,229.9 16,232.2 24,235.8 32,240.5 40,245.6 48,250.5 56,254.2 64,255.8 72,254.9 80,251.3 88,245.5 96,238.2 104,230.6 112,223.5 120,218.1 128,214.8 136,213.6 144,214.4 152,216.5 160,219.1 168,221.5 176,223.2 184,224.1 192,224.5 200,224.8 208,225.7 216,227.8 224,231.2 232,236.0 240,241.7 248,247.6 256,252.6 264,255.8 272,256.7 280,254.7 288,250.3 296,243.9 304,236.6 312,229.4 320,223.3 328,218.9 336,216.6 344,216.2 352,217.2 360,218.8 368,220.5 376,221.6 384,222.0 392,221.8 400,221.6" fill="none" stroke="#60a5fa" stroke-width="1.5" opacity="0.22"/>
  <polyline points="0,244.3 8,238.0 16,234.3 24,233.5 32,235.5 40,239.5 48,244.6 56,249.8 64,254.0 72,256.9 80,258.4 88,258.9 96,259.1 104,259.9 112,262.0 120,265.7 128,271.0 136,277.3 144,283.6 152,288.7 160,291.8 168,292.0 176,289.2 184,283.6 192,276.3 200,268.2 208,260.5 216,254.4 224,250.2 232,248.3 240,248.0 248,248.8 256,249.7 264,249.9 272,248.9 280,246.9 288,244.1 296,241.4 304,239.8 312,240.1 320,242.9 328,248.3 336,255.8 344,264.4 352,273.1 360,280.6 368,285.9 376,288.4 384,288.2 392,285.6 400,281.7" fill="none" stroke="#60a5fa" stroke-width="1.5" opacity="0.13"/>
  </g>

  <!-- Header -->
  <text x="20" y="40" font-family="Inter, sans-serif" font-size="14" fill="#60a5fa" font-weight="600">
    UWA / 10-03
  </text>

  <!-- Keyword badge -->
  <rect x="20" y="60" width="92" height="28" rx="14" fill="#60a5fa" opacity="0.2"/>
  <text x="30" y="79" font-family="Inter, sans-serif" font-size="13" fill="#60a5fa" font-weight="500">
    detection
  </text>

  <!-- Title -->
  <foreignObject x="20" y="110" width="360" height="120">
    <div xmlns="http://www.w3.org/1999/xhtml" style="
      font-family: Inter, sans-serif;
      font-size: 18px;
      font-weight: 600;
      color: #e2e8f0;
      line-height: 1.4;
      overflow: hidden;
      display: -webkit-box;
      -webkit-line-clamp: 4;
      -webkit-box-orient: vertical;
    ">
      Real-Time DETR Detection Benchmark and Domain-Shift Analy...
    </div>
  </foreignObject>

  <!-- Author -->
  <text x="20" y="250" font-family="Inter, sans-serif" font-size="13" fill="#94a3b8">
    Hao Yuan
  </text>

  <!-- Footer -->
  <text x="20" y="275" font-family="Inter, sans-serif" font-size="11" fill="#64748b">
    Preprints.org
  </text>

  <!-- Score badge -->
  <circle cx="360" cy="40" r="24" fill="#60a5fa" opacity="0.2"/>
  <text x="360" y="46" font-family="Inter, sans-serif" font-size="14" fill="#60a5fa" font-weight="700" text-anchor="middle">
    72
  </text>
</svg>