<svg width="400" height="300" xmlns="http://www.w3.org/2000/svg">
  <defs>
    <linearGradient id="grad" x1="0%" y1="0%" x2="100%" y2="100%">
      <stop offset="0%" style="stop-color:#431407;stop-opacity:1" />
      <stop offset="100%" style="stop-color:#9a3412;stop-opacity:1" />
    </linearGradient>
  </defs>

  <!-- Background -->
  <rect width="400" height="300" fill="url(#grad)"/>

  <!-- Grid pattern -->
  <g opacity="0.1">
    <line x1="0" y1="75" x2="400" y2="75" stroke="#fb923c" stroke-width="1"/>
    <line x1="0" y1="150" x2="400" y2="150" stroke="#fb923c" stroke-width="1"/>
    <line x1="0" y1="225" x2="400" y2="225" stroke="#fb923c" stroke-width="1"/>
    <line x1="100" y1="0" x2="100" y2="300" stroke="#fb923c" stroke-width="1"/>
    <line x1="200" y1="0" x2="200" y2="300" stroke="#fb923c" stroke-width="1"/>
    <line x1="300" y1="0" x2="300" y2="300" stroke="#fb923c" stroke-width="1"/>
  </g>

  <!-- Waveform decoration (deterministic per title) -->
  <g>
  <polyline points="0,193.4 8,190.7 16,189.6 24,190.2 32,191.8 40,193.9 48,196.0 56,197.5 64,198.2 72,198.2 80,197.8 88,197.7 96,198.2 104,199.9 112,203.0 120,207.1 128,212.0 136,216.8 144,220.9 152,223.6 160,224.5 168,223.4 176,220.7 184,216.7 192,212.4 200,208.2 208,204.9 216,202.8 224,201.7 232,201.3 240,201.3 248,201.0 256,200.1 264,198.2 272,195.6 280,192.6 288,189.9 296,188.0 304,187.6 312,189.0 320,192.1 328,196.8 336,202.2 344,207.7 352,212.6 360,216.1 368,218.1 376,218.5 384,217.6 392,216.1 400,214.6" fill="none" stroke="#fb923c" stroke-width="1.5" opacity="0.35"/>
  <polyline points="0,241.3 8,243.0 16,245.7 24,248.9 32,251.8 40,253.5 48,253.4 56,251.2 64,246.9 72,241.1 80,234.6 88,228.2 96,223.0 104,219.4 112,217.7 120,217.7 128,218.9 136,220.4 144,221.5 152,221.6 160,220.5 168,218.4 176,215.9 184,213.6 192,212.5 200,213.1 208,215.7 216,220.3 224,226.4 232,233.0 240,239.4 248,244.6 256,247.9 264,249.3 272,248.9 280,247.3 288,245.3 296,243.6 304,242.8 312,243.2 320,244.7 328,246.6 336,248.3 344,249.0 352,248.0 360,245.0 368,240.2 376,234.0 384,227.3 392,221.1 400,216.1" fill="none" stroke="#fb923c" stroke-width="1.5" opacity="0.22"/>
  <polyline points="0,232.3 8,235.5 16,240.6 24,246.8 32,253.0 40,258.2 48,261.6 56,263.1 64,263.0 72,262.0 80,261.0 88,260.9 96,262.5 104,266.0 112,271.2 120,277.4 128,283.6 136,288.7 144,291.7 152,292.3 160,290.4 168,286.5 176,281.5 184,276.4 192,272.2 200,269.5 208,268.7 216,269.3 224,270.7 232,271.9 240,271.9 248,270.1 256,266.2 264,260.5 272,253.6 280,246.6 288,240.5 296,236.3 304,234.5 312,235.2 320,237.9 328,241.6 336,245.5 344,248.5 352,250.0 360,249.8 368,248.2 376,246.0 384,244.2 392,243.7 400,245.1" fill="none" stroke="#fb923c" stroke-width="1.5" opacity="0.13"/>
  </g>

  <!-- Header -->
  <text x="20" y="40" font-family="Inter, sans-serif" font-size="14" fill="#fb923c" font-weight="600">
    UWA / 08-24
  </text>

  <!-- Keyword badge -->
  <rect x="20" y="60" width="116" height="28" rx="14" fill="#fb923c" opacity="0.2"/>
  <text x="30" y="79" font-family="Inter, sans-serif" font-size="13" fill="#fb923c" font-weight="500">
    localization
  </text>

  <!-- Title -->
  <foreignObject x="20" y="110" width="360" height="120">
    <div xmlns="http://www.w3.org/1999/xhtml" style="
      font-family: Inter, sans-serif;
      font-size: 18px;
      font-weight: 600;
      color: #e2e8f0;
      line-height: 1.4;
      overflow: hidden;
      display: -webkit-box;
      -webkit-line-clamp: 4;
      -webkit-box-orient: vertical;
    ">
      Bats decouple sonar gaze from steering to resolve sensory...
    </div>
  </foreignObject>

  <!-- Author -->
  <text x="20" y="250" font-family="Inter, sans-serif" font-size="13" fill="#94a3b8">
    Nikita M. Finger
  </text>

  <!-- Footer -->
  <text x="20" y="275" font-family="Inter, sans-serif" font-size="11" fill="#64748b">
    Unknown
  </text>

  <!-- Score badge -->
  <circle cx="360" cy="40" r="24" fill="#fb923c" opacity="0.2"/>
  <text x="360" y="46" font-family="Inter, sans-serif" font-size="14" fill="#fb923c" font-weight="700" text-anchor="middle">
    55
  </text>
</svg>